PathFileType	4	(X/Y/Z)	Walk6.trc
DataRate	CameraRate	NumFrames	NumMarkers	Units	OrigDataRate	OrigDataStartFrame	OrigNumFrames
200.000000	200.000000	4	58	mm	200.000000	524	562
Frame#	Times		RBHD		RASI		RACR1		RUA1		RFA1		RCAR		C7		LFA1		RElbow		RTH3		RTH2		LElbowM		RTB3		LTH2		RTH1		RTB1		RLFC		RMT1		RTB2		RMT5		RTB4		LACR1		LTH3		LElbow		RWRR		LTH4		LWRU		LPSI		RPSI		LTB1		T10		LWRR		LLFC		RWRU		LBHD		LTB3		LTB2		RFHD		LTH1		LTB4		LMT1		LFHD		RBack		LMMAL		RTH4		LASI		LCAL		LLMAL		CLAV		LCAR		LMT5		RLMAL		LToe		RToe		RMMAL		LUA1		RElbowM		RCAL
			X1	Y1	Z1	X2	Y2	Z2	X3	Y3	Z3	X4	Y4	Z4	X5	Y5	Z5	X6	Y6	Z6	X7	Y7	Z7	X8	Y8	Z8	X9	Y9	Z9	X10	Y10	Z10	X11	Y11	Z11	X12	Y12	Z12	X13	Y13	Z13	X14	Y14	Z14	X15	Y15	Z15	X16	Y16	Z16	X17	Y17	Z17	X18	Y18	Z18	X19	Y19	Z19	X20	Y20	Z20	X21	Y21	Z21	X22	Y22	Z22	X23	Y23	Z23	X24	Y24	Z24	X25	Y25	Z25	X26	Y26	Z26	X27	Y27	Z27	X28	Y28	Z28	X29	Y29	Z29	X30	Y30	Z30	X31	Y31	Z31	X32	Y32	Z32	X33	Y33	Z33	X34	Y34	Z34	X35	Y35	Z35	X36	Y36	Z36	X37	Y37	Z37	X38	Y38	Z38	X39	Y39	Z39	X40	Y40	Z40	X41	Y41	Z41	X42	Y42	Z42	X43	Y43	Z43	X44	Y44	Z44	X45	Y45	Z45	X46	Y46	Z46	X47	Y47	Z47	X48	Y48	Z48	X49	Y49	Z49	X50	Y50	Z50	X51	Y51	Z51	X52	Y52	Z52	X53	Y53	Z53	X54	Y54	Z54	X55	Y55	Z55	X56	Y56	Z56	X57	Y57	Z57	X58	Y58	Z58

524	2.62	1208.2	1586.5	421.78	1263.1	959.79	461.3	1240.2	1399.3	480.5	1218.7	1210.8	565.76	1271.3	954.87	622.19	1357.7	792.47	623.25	1171	1452.6	341.95	1173.4	1000.9	17.028	1191.3	1081.9	602.42	1208.3	563.13	480.74	1274.7	661.14	465.73	1071.9	1137.3	128.25	1189.9	178.02	369.19	1369.2	700.07	151.18	1207.6	749.28	509.56	1226.3	364.7	377.04	1204.8	458.49	461.86	1268	35.235	321.37	1200.2	269.39	446.87	1241.5	29.051	412.21	1211.6	273.3	374.96	1198.5	1449.9	162.63	1342.2	586.9	139.01	1090.5	1138.4	48.611	1364.5	848.88	577.51	1302.7	667.01	126.61	1152.5	883.26	17.118	1087.3	970.88	252.68	1083.4	977.15	357.48	1383.5	382.21	218.5	1078	1142.9	311.15	1216.5	897.77	57.028	1372.9	483.42	156.8	1299.3	827.86	615.17	1193.6	1597.4	282.97	1271.7	234.75	234.67	1297.9	323.15	162.07	1071.5	1661.7	437.98	1260.9	755.71	124.23	1325.4	309.46	227.37	1275.5	63.567	279.21	1338.8	1611.8	338.09	1102.7	1352.5	434.08	1190.6	163.39	297.58	1208.1	653.72	495.17	1259.6	956.98	159.7	1090.9	140.21	264.55	1150.8	162.94	213.68	1302.9	1373.5	315.99	1224.2	840.96	12.729	1249.4	69.278	199.65	1120.3	79.555	406.94	1314.9	61.965	254.88	1319.6	30.206	342.36	1144.7	96.118	320.56	1135.6	1262.2	64.563	1169.4	1049.5	511.28	1067.2	31.953	366.52
525	2.625	1214.3	1586.7	421.31	1268.7	959.42	461.72	1246.2	1399.6	480.49	1225.3	1211.4	566.36	1281.8	956.44	622.87	1371.4	796.02	623.51	1177	1452.4	341.88	1176.4	1000.5	16.888	1198.8	1081.7	602.93	1210.9	563.07	481.35	1278.2	660.58	465.73	1076.4	1137.2	128.71	1190.3	177.87	369.04	1376.6	701.3	151.29	1211.9	749.32	509.67	1227.3	364.52	376.99	1206.5	458.38	461.96	1268.2	35.575	321.64	1201.2	269.13	446.77	1241	27.697	410.98	1212.3	273.14	374.87	1204.3	1449.5	162.51	1350.9	588.07	138.84	1094.3	1138.4	49.091	1377.2	852.69	577.93	1310.7	667.85	126.41	1154.6	883.24	17.28	1093.5	970.72	252.55	1089.3	977.1	357.29	1395.1	383.63	218.6	1084.1	1143	310.93	1218.7	897.03	56.518	1381.5	484.35	156.98	1312.4	830.31	615.63	1199.4	1597.1	282.37	1287.8	233.02	235.09	1311.4	322.16	162.26	1078.2	1661.6	436.97	1268.3	756.17	123.93	1339.1	309.33	227.54	1297.1	62.762	279.37	1342.2	1611.6	339.55	1108.9	1352.4	434.09	1208.9	159.21	298.3	1211.5	654.25	496.53	1266.1	956.79	160.01	1110.2	133.31	265.34	1168.8	157.4	214.62	1309	1373.4	315.82	1226.3	840.33	12.218	1270	67.018	199.82	1120.5	79.654	406.92	1336.5	61.794	254.78	1319.3	28.233	340.21	1145.3	96.189	321.78	1140.1	1261.9	64.918	1178.2	1049.4	512.42	1067	32.836	366.71
526	2.63	1220.2	1587	420.8	1274.8	958.87	461.81	1252.1	1399.8	480.24	1231.9	1212	566.94	1292.3	958.18	623.52	1385.1	799.51	623.66	1183.1	1452.2	341.59	1179.3	1000	16.795	1207.1	1082.2	603.48	1213.3	562.68	481.37	1281.8	659.75	465.78	1080.9	1137.1	129.5	1190.7	177.77	368.84	1383.6	702.38	151.62	1216.2	748.98	509.75	1228.4	364.29	376.89	1208.1	458.12	461.97	1268.3	36.143	322.49	1202.3	268.85	446.71	1240.7	26.59	409.61	1213	272.93	374.76	1210.1	1448.9	162.33	1359.4	589.12	138.84	1098.4	1138.4	49.56	1389.6	856.4	578.32	1318.5	668.49	126.17	1157.5	882.23	18.4	1099.6	970.49	252.48	1095.2	976.91	357.07	1406.4	385	218.76	1090.3	1142.7	310.6	1221	896.15	56.012	1390.3	485.03	157.52	1325.5	832.81	616.03	1205.4	1596.7	281.69	1303.9	231.28	235.5	1324.9	321.07	162.41	1085	1661.2	435.96	1275.8	756.59	123.62	1353	309.11	227.71	1318.5	61.885	279.55	1345.5	1611.4	340.97	1115.1	1352.4	434.27	1227.6	154.95	298.8	1214.9	654.57	497.5	1272.6	956.39	160.37	1129.4	125.87	266.09	1186.8	151.83	215.48	1315.2	1373.1	315.79	1228.6	839.6	11.521	1291.1	64.73	200.05	1120.7	79.699	406.86	1358	61.807	254.58	1319.6	27.493	338.81	1145.5	95.687	321.97	1144.6	1261.6	65.256	1187	1049.1	513.24	1067	33.237	366.85
527	2.635	1226.1	1586.9	420.04	1281.6	958.1	461.71	1258.4	1399.8	480.16	1238.5	1212.3	567.45	1302.6	959.78	624.18	1398.5	803.15	623.67	1189.2	1452	341.37	1182.3	999.35	16.645	1215.7	1082.5	604.5	1216.2	562.26	481.24	1285.4	659.06	465.64	1085.2	1136.8	130.34	1191.2	177.99	368.4	1390.7	703.42	151.95	1220.6	748.76	509.87	1229.5	363.93	376.7	1210	457.82	461.98	1268.5	36.706	323.39	1203.5	268.6	446.69	1240.6	25.954	408.57	1213.8	272.68	374.57	1215.9	1448.3	162.1	1367.7	589.97	138.82	1102.5	1138.4	50.043	1402.1	860.47	578.61	1326.4	669.1	125.95	1160.8	881.22	20.096	1105.5	970.32	252.05	1100.9	976.7	356.7	1417.9	386.35	218.8	1096.3	1142.3	310.42	1223.3	895.15	55.509	1399.2	485.85	157.66	1338.4	835.21	616.49	1211.3	1596.1	281.17	1320	229.47	235.72	1338.3	319.97	162.54	1091.7	1660.6	434.99	1283	756.86	123.32	1366.7	308.87	227.83	1340.2	60.508	279.54	1348.8	1611.1	342.34	1121.4	1352.1	434.33	1246.4	150.89	299.07	1218.5	654.67	497.87	1279	955.98	160.73	1150.6	117.01	268.11	1205.2	146.44	216.29	1321.4	1372.8	315.52	1231.4	838.75	10.542	1312.6	62.84	200.12	1121	79.733	406.73	1379.7	61.606	254.4	1320.2	27.586	338.55	1145.4	95.996	321.29	1149.4	1261.2	65.51	1195.8	1049	514.25	1067.1	33.316	366.82
